<svg width="37" height="13" viewBox="0 0 37 13" fill="none" xmlns="http://www.w3.org/2000/svg">
<path d="M0.8 10C0.675 10 0.5775 9.965 0.5075 9.895C0.4375 9.825 0.4025 9.7275 0.4025 9.6025V0.722499C0.4025 0.597499 0.4375 0.5 0.5075 0.43C0.5775 0.36 0.675 0.324999 0.8 0.324999C0.92 0.324999 1.015 0.36 1.085 0.43C1.155 0.5 1.19 0.597499 1.19 0.722499V9.6025C1.19 9.7275 1.155 9.825 1.085 9.895C1.015 9.965 0.92 10 0.8 10Z" fill="url(#paint0_linear_1_2)"/>
<path d="M4.95287 9.988C4.46087 9.988 4.08487 9.884 3.82487 9.676C3.56487 9.464 3.40887 9.142 3.35687 8.71C3.34487 8.606 3.36687 8.526 3.42287 8.47C3.47887 8.41 3.56087 8.38 3.66887 8.38C3.76887 8.38 3.84287 8.406 3.89087 8.458C3.94287 8.51 3.97687 8.588 3.99287 8.692C4.02887 8.94 4.11887 9.114 4.26287 9.214C4.41087 9.31 4.64087 9.358 4.95287 9.358H6.92087C7.29287 9.358 7.54887 9.288 7.68887 9.148C7.82887 9.008 7.89887 8.752 7.89887 8.38C7.89887 8.004 7.82887 7.746 7.68887 7.606C7.54887 7.466 7.29287 7.396 6.92087 7.396H4.97687C4.45687 7.396 4.06887 7.272 3.81287 7.024C3.56087 6.772 3.43487 6.386 3.43487 5.866C3.43487 5.334 3.56087 4.944 3.81287 4.696C4.06487 4.444 4.45287 4.318 4.97687 4.318H6.86087C7.76487 4.318 8.26687 4.718 8.36687 5.518C8.38287 5.622 8.36087 5.704 8.30087 5.764C8.24487 5.82 8.16487 5.848 8.06087 5.848C7.96087 5.848 7.88487 5.822 7.83287 5.77C7.78487 5.718 7.75087 5.642 7.73087 5.542C7.70287 5.318 7.62087 5.164 7.48487 5.08C7.35287 4.992 7.14487 4.948 6.86087 4.948H4.97687C4.62887 4.948 4.38887 5.012 4.25687 5.14C4.12887 5.268 4.06487 5.51 4.06487 5.866C4.06487 6.206 4.13087 6.442 4.26287 6.574C4.39487 6.702 4.63287 6.766 4.97687 6.766H6.92087C7.47287 6.766 7.87887 6.898 8.13887 7.162C8.39887 7.422 8.52887 7.828 8.52887 8.38C8.52887 8.928 8.39887 9.334 8.13887 9.598C7.87887 9.858 7.47287 9.988 6.92087 9.988H4.95287ZM12.418 10C11.67 10 11.122 9.828 10.774 9.484C10.426 9.136 10.252 8.59 10.252 7.846V6.49C10.252 5.734 10.426 5.184 10.774 4.84C11.122 4.492 11.67 4.322 12.418 4.33H13.402C14.15 4.33 14.696 4.504 15.04 4.852C15.388 5.196 15.562 5.742 15.562 6.49V7.834C15.562 8.582 15.388 9.13 15.04 9.478C14.696 9.826 14.15 10 13.402 10H12.418ZM10.882 7.846C10.882 8.41 10.994 8.806 11.218 9.034C11.446 9.258 11.846 9.37 12.418 9.37H13.402C13.974 9.37 14.372 9.258 14.596 9.034C14.82 8.806 14.932 8.406 14.932 7.834V6.49C14.932 5.918 14.82 5.52 14.596 5.296C14.372 5.072 13.974 4.96 13.402 4.96H12.418C12.034 4.956 11.73 5.002 11.506 5.098C11.282 5.194 11.122 5.354 11.026 5.578C10.93 5.802 10.882 6.106 10.882 6.49V7.846ZM19.9845 10C19.1165 10 18.4825 9.8 18.0825 9.4C17.6825 9 17.4825 8.366 17.4825 7.498V4.768C17.4825 3.892 17.6805 3.256 18.0765 2.86C18.4765 2.464 19.1085 2.266 19.9725 2.266H21.4245C22.1605 2.266 22.7085 2.42 23.0685 2.728C23.4285 3.032 23.6265 3.522 23.6625 4.198C23.6745 4.306 23.6525 4.388 23.5965 4.444C23.5445 4.5 23.4665 4.528 23.3625 4.528C23.1625 4.528 23.0525 4.422 23.0325 4.21C23.0045 3.714 22.8685 3.372 22.6245 3.184C22.3805 2.992 21.9805 2.896 21.4245 2.896H19.9725C19.5125 2.896 19.1465 2.956 18.8745 3.076C18.6025 3.192 18.4065 3.388 18.2865 3.664C18.1705 3.936 18.1125 4.304 18.1125 4.768V7.498C18.1125 7.962 18.1725 8.33 18.2925 8.602C18.4125 8.874 18.6085 9.07 18.8805 9.19C19.1525 9.31 19.5205 9.37 19.9845 9.37H21.4245C21.8325 9.37 22.1545 9.32 22.3905 9.22C22.6305 9.12 22.8005 8.952 22.9005 8.716C23.0005 8.48 23.0505 8.154 23.0505 7.738V6.988L21.7365 6.976C21.5285 6.976 21.4245 6.87 21.4245 6.658C21.4245 6.45 21.5285 6.346 21.7365 6.346L23.3685 6.358C23.5765 6.358 23.6805 6.462 23.6805 6.67V7.738C23.6805 8.53 23.5025 9.106 23.1465 9.466C22.7905 9.822 22.2165 10 21.4245 10H19.9845ZM25.9546 12.4C25.7426 12.4 25.6366 12.294 25.6366 12.082V4.642C25.6366 4.434 25.7426 4.33 25.9546 4.33C26.1626 4.33 26.2666 4.434 26.2666 4.642V5.176C26.4466 4.896 26.7046 4.686 27.0406 4.546C27.3766 4.402 27.8066 4.33 28.3306 4.33H28.7866C29.5346 4.33 30.0806 4.504 30.4246 4.852C30.7726 5.196 30.9466 5.742 30.9466 6.49V7.834C30.9466 8.582 30.7726 9.13 30.4246 9.478C30.0806 9.826 29.5346 10 28.7866 10H26.2666V12.082C26.2666 12.294 26.1626 12.4 25.9546 12.4ZM26.2666 9.37H28.7866C29.3586 9.37 29.7566 9.258 29.9806 9.034C30.2046 8.806 30.3166 8.406 30.3166 7.834V6.49C30.3166 5.918 30.2046 5.52 29.9806 5.296C29.7566 5.072 29.3586 4.96 28.7866 4.96H28.3306C27.6906 4.96 27.1986 5.06 26.8546 5.26C26.5146 5.46 26.3186 5.768 26.2666 6.184V9.37Z" fill="white"/>
<path d="M36.4932 10C35.5118 10 34.7945 9.77333 34.3412 9.32C33.8878 8.86667 33.6612 8.152 33.6612 7.176V3.28H32.7092C32.4265 3.28 32.2852 3.13867 32.2852 2.856C32.2852 2.57867 32.4265 2.44 32.7092 2.44H33.6612V0.719999C33.6612 0.437333 33.7998 0.296 34.0772 0.296C34.3598 0.296 34.5012 0.437333 34.5012 0.719999V2.44H36.5092C36.7865 2.44 36.9252 2.57867 36.9252 2.856C36.9252 3.13867 36.7865 3.28 36.5092 3.28H34.5012V7.176C34.5012 7.92267 34.6452 8.44 34.9332 8.728C35.2265 9.016 35.7465 9.16 36.4932 9.16C36.6478 9.16 36.7572 9.19467 36.8212 9.264C36.8905 9.33333 36.9252 9.43733 36.9252 9.576C36.9252 9.85867 36.7812 10 36.4932 10Z" fill="url(#paint1_linear_1_2)"/>
<defs>
<linearGradient id="paint0_linear_1_2" x1="18.5" y1="-5" x2="18.5" y2="14" gradientUnits="userSpaceOnUse">
<stop stop-color="#737373"/>
<stop offset="1" stop-color="#737373" stop-opacity="0"/>
</linearGradient>
<linearGradient id="paint1_linear_1_2" x1="18.5" y1="-5" x2="18.5" y2="14" gradientUnits="userSpaceOnUse">
<stop stop-color="white"/>
<stop offset="1" stop-color="white" stop-opacity="0"/>
</linearGradient>
</defs>
</svg>
